<svg id="Layer_1" data-name="Layer 1" xmlns="http://www.w3.org/2000/svg" viewBox="0 0 1433.339 361.5">
  <title>atomia_logo_white</title>
  <path id="Atomia" d="M352.434,310.618a19.749,19.749,0,0,1-11.821-3.493,15.3,15.3,0,0,1-6.218-8.832q-1.365-5.34-1.365-37.7V154.065h41.437a6.339,6.339,0,0,0,6.339-6.339v-43.06a6.339,6.339,0,0,0-6.339-6.339H333.03V12.147a4.113,4.113,0,0,0-6.181-3.556L267.9,42.87a10.166,10.166,0,0,0-5.056,8.788V98.327H237.079a6.339,6.339,0,0,0-6.339,6.339v43.06a6.339,6.339,0,0,0,6.339,6.339h25.768V269.3q0,37.1,2.235,49.288,2.73,17.163,9.832,27.247t22.273,16.425q15.175,6.337,34.1,6.343,27.978,0,50.653-8.6a6.4,6.4,0,0,0,4.062-6.685l-4.58-41.565a6.332,6.332,0,0,0-8.241-5.32Q360.1,310.621,352.434,310.618ZM518.716,92.345q-38.823,0-70.307,17.183-31.482,17.163-48.654,49.765-17.177,32.62-17.174,67.443,0,45.561,17.174,77.28,17.169,31.736,50.149,48.159A153.445,153.445,0,0,0,519.216,368.6q58.736,0,97.434-39.438t38.7-99.423q0-59.492-38.327-98.437T518.716,92.345ZM564.886,290.7q-18.549,20.9-45.916,20.908T472.921,290.7q-18.662-20.9-18.664-60.221t18.664-60.235q18.675-20.9,46.049-20.894t45.916,20.894q18.541,20.923,18.543,59.739Q583.43,269.8,564.886,290.7Zm460.822-186.525q-20.161-11.824-49.283-11.83A92.24,92.24,0,0,0,933.374,102.8q-20.161,10.458-37.582,31.609Q883.847,113.26,865.176,102.8T821.134,92.345q-47.789,0-82.382,42.066V104.666a6.339,6.339,0,0,0-6.339-6.339H680.631a6.339,6.339,0,0,0-6.339,6.339V356.293a6.339,6.339,0,0,0,6.339,6.339h57.255a6.339,6.339,0,0,0,6.339-6.339V234.209q0-38.074,5.607-54.5,5.588-16.42,18.535-25.132a50.992,50.992,0,0,1,29.12-8.721q13.443,0,21.278,5.478t11.571,16.683q3.734,11.188,3.733,49.77V356.293a6.339,6.339,0,0,0,6.339,6.339h57.255A6.339,6.339,0,0,0,904,356.293V235.708q0-37.324,5.723-54.637,5.728-17.3,18.664-26.248a47.613,47.613,0,0,1,27.63-8.97q20.161,0,29.861,14.939,7.214,11.456,7.218,50.773V356.293a6.339,6.339,0,0,0,6.339,6.339h57.255a6.339,6.339,0,0,0,6.339-6.339V193.642q0-37.819-7.213-54.748Q1045.862,115.99,1025.709,104.175Zm82.771,258.456h57.255a6.339,6.339,0,0,0,6.339-6.339V104.667a6.34,6.34,0,0,0-6.34-6.34H1108.48a6.34,6.34,0,0,0-6.34,6.34V356.293A6.339,6.339,0,0,0,1108.479,362.632Zm318.473-86.857.75-81.638q0-45.541-9.332-62.59t-32.23-28.116q-22.9-11.074-69.687-11.085-51.522,0-77.65,18.419-23.4,16.5-34.417,48.928a7.105,7.105,0,0,0,5.5,9.242l48.231,8.71a9.076,9.076,0,0,0,9.912-5.254q5.856-13.238,14.333-19.19,10.452-7.347,29.116-7.347,27.629,0,37.578,8.6,9.956,8.585,9.961,28.732v6.977q-18.923,7.963-67.947,17.165-36.334,6.979-55.618,16.3a69.967,69.967,0,0,0-29.995,26.881q-10.7,17.558-10.7,39.947,0,33.858,23.517,56,23.52,22.162,64.334,22.148a109.841,109.841,0,0,0,43.551-8.708q20.4-8.705,38.327-26.136.743,2,2.489,8.213,2.47,8.517,4.468,14.422a9.17,9.17,0,0,0,8.691,6.241h55.123a4.871,4.871,0,0,0,4.449-6.842,140.812,140.812,0,0,1-9.392-28.622Q1426.949,310.621,1426.952,275.775Zm-67.938-26.132q0,25.126-2.739,34.1-3.988,13.677-16.679,23.138-17.163,12.459-36.088,12.446-16.915,0-27.867-10.7t-10.951-25.391q0-14.922,13.69-24.637,8.953-5.962,38.073-12.187t42.561-10.7ZM73,102.534l42.975,115.744H34.269a9.976,9.976,0,0,0-9.386,6.594L7.027,274.426a3.979,3.979,0,0,0,3.743,5.328H139.623l29.7,77.255a8.769,8.769,0,0,0,8.185,5.623h67.05a4.779,4.779,0,0,0,4.437-6.555l-137.728-344a5.223,5.223,0,0,0-9.762.171L72.948,91.495A16.068,16.068,0,0,0,73,102.534ZM1100.189,44.018a36.918,36.918,0,1,1,36.918,36.918A36.918,36.918,0,0,1,1100.189,44.018Z" transform="translate(-6.788 -7.101)" style="fill: #fff"/>
</svg>
