<?xml version="1.0" encoding="utf-8"?>
<!-- Generator: Adobe Illustrator 18.1.1, SVG Export Plug-In . SVG Version: 6.00 Build 0)  -->
<svg version="1.1" id="Layer_1" xmlns="http://www.w3.org/2000/svg" xmlns:xlink="http://www.w3.org/1999/xlink" x="0px" y="0px"
	 viewBox="0 0 96 96" enable-background="new 0 0 96 96" xml:space="preserve">
<path fill="#373333" d="M96.002,47.995c0,26.511-21.488,48.007-47.997,48.007C21.488,96.002,0,74.506,0,47.995
	C0,21.488,21.488-0.002,48.005-0.002C74.514-0.002,96.002,21.488,96.002,47.995z"/>
<g>
	<defs>
		<path id="SVGID_11_" d="M89.534,36.867c6.147,22.94-7.463,46.522-30.401,52.668c-22.945,6.148-46.522-7.47-52.669-30.41
			C0.319,36.189,13.93,12.612,36.875,6.464C59.813,0.317,83.389,13.93,89.534,36.867z"/>
	</defs>
	<clipPath id="SVGID_2_">
		<use xlink:href="#SVGID_11_"  overflow="visible"/>
	</clipPath>
	<g clip-path="url(#SVGID_2_)">
		<g>
			<path fill="#FFFFFF" d="M107.115,51.289c0.164-0.483,0.238-0.998,0.096-1.527l-8.625-32.191
				c-0.141-0.527-0.463-0.938-0.847-1.276l-17.65,23.485L107.115,51.289z"/>
			<path fill="#FFFFFF" d="M72.251,43.783l24.186-28.148c-0.367-0.064-0.755-0.066-1.139,0.037l-57.063,15.29
				c-0.383,0.103-0.717,0.298-1.004,0.537L72.251,43.783z"/>
			<path fill="#FFFFFF" d="M36.436,32.722c-0.164,0.484-0.237,1.002-0.095,1.529l8.625,32.191c0.142,0.528,0.463,0.937,0.846,1.274
				l17.652-23.48L36.436,32.722z"/>
			<path fill="#FFFFFF" d="M78.28,42.179l-4.442,5.914c-0.098,0.124-0.226,0.208-0.366,0.245c-0.14,0.038-0.293,0.029-0.44-0.029
				l-6.802-2.901L47.088,68.372c0.381,0.069,0.769,0.076,1.163-0.03l57.063-15.29c0.395-0.106,0.729-0.305,1.024-0.556L78.28,42.179
				z"/>
		</g>
	</g>
</g>
<g>
	<path fill="#CACACA" d="M15.028,46.883l17.902-4.797c0.865-0.232,1.379-1.121,1.147-1.986l0,0
		c-0.232-0.865-1.121-1.379-1.986-1.147L14.189,43.75c-0.865,0.232-1.379,1.121-1.147,1.986l0,0
		C13.274,46.601,14.163,47.115,15.028,46.883z"/>
	<path fill="#CACACA" d="M20.844,68.587l17.902-4.797c0.865-0.232,1.379-1.121,1.147-1.986l0,0
		c-0.232-0.865-1.121-1.379-1.986-1.147l-17.902,4.797c-0.865,0.232-1.379,1.121-1.147,1.986l0,0
		C19.089,68.305,19.979,68.819,20.844,68.587z"/>
	<path fill="#CACACA" d="M8.718,60.205l27.12-7.267c0.865-0.232,1.379-1.121,1.147-1.986h0c-0.232-0.865-1.121-1.379-1.986-1.147
		l-27.12,7.267c-0.865,0.232-1.379,1.121-1.147,1.986l0,0C6.964,59.923,7.853,60.437,8.718,60.205z"/>
</g>
</svg>
